# xmcd CD database file
#
# Track frame offsets:
#	150
#	21861
#	45341
#	61020
#	79636
#	93781
#	109479
#	135122
#	148261
#	164171
#
# Disc length: 2406 seconds
#
# Revision: 0
# Processed by: cddbd v1.5.1PL2 Copyright (c) Steve Scherf et al.
# Submitted via: CDex 1.51
#
DISCID=7b09640a
DTITLE=Fran - スタジオジブリ名曲集 - 君をのせて -
DYEAR=3006
DGENRE=Anime
TTITLE0=もののけ姫
TTITLE1=世界の約束
TTITLE2=風の谷のナウシカ
TTITLE3=マルコとジーナのテーマ
TTITLE4=君をのせて
TTITLE5=さくらんぼの実る頃
TTITLE6=トトロメドレー
TTITLE7=海の見える町
TTITLE8=あの夏へ
TTITLE9=はにゅうの宿
EXTD=YEAR: 3006
EXTT0=
EXTT1=
EXTT2=
EXTT3=
EXTT4=
EXTT5=
EXTT6=
EXTT7=
EXTT8=
EXTT9=
PLAYORDER=
